<svg aria-hidden="true" style="position:absolute;width:0;height:0" xmlns="http://www.w3.org/2000/svg" overflow="hidden">
<defs>
<symbol id="client-logo-1" viewBox="0 0 32 32">
<path fill="" d="M5 0l4.872 4.468h13.589v12.465l4.872 4.468V0H5z"/>
<path fill="" d="M1 4.28v20.79h22.667v-8.264L10.016 4.285 1.001 4.28zm18.349 17.749H4.587V8.047H5.63v13.035h13.719v.947zM7.527 28.991l.545-1.123h.456l-.795 1.497v.872H7.32v-.872l-.796-1.497h.457l.545 1.123zm2.34.695H8.95l-.192.551H8.33l.895-2.369h.37l.897 2.369h-.43l-.193-.551zm-.802-.332h.687l-.343-.983-.343.983zm2.426.244c0-.109.03-.21.089-.301s.177-.201.353-.327a1.492 1.492 0 01-.189-.288l-.004-.009a.564.564 0 01-.054-.235c0-.185.056-.332.169-.439a.628.628 0 01.455-.163c.173 0 .313.051.423.153.111.1.167.226.167.375v.003a.52.52 0 01-.077.273l.001-.002a.903.903 0 01-.243.246l-.003.002-.161.117.458.541a.947.947 0 00.099-.435h.343c0 .292-.068.531-.205.718l.348.411h-.459l-.133-.157a.971.971 0 01-.58.19h-.027.001c-.234 0-.422-.062-.563-.185a.62.62 0 01-.21-.466v-.022.001zm.784.357a.609.609 0 00.374-.133l-.517-.611-.051.036c-.13.099-.195.211-.195.338 0 .11.035.199.106.267a.389.389 0 00.265.104h.02-.001zm-.218-1.527c0 .091.056.205.168.343l.18-.124.051-.04a.292.292 0 00.101-.221v-.009-.003a.206.206 0 00-.07-.155.247.247 0 00-.169-.067h-.019a.233.233 0 00-.174.078.285.285 0 00-.069.187v.011-.001zm4.305 1.038c-.024.253-.117.451-.28.593s-.379.211-.649.211h-.019a.928.928 0 01-.485-.136l.004.002a.89.89 0 01-.33-.377l-.002-.006a1.354 1.354 0 01-.122-.567v-.23c0-.223.04-.42.119-.591a.904.904 0 01.34-.393.95.95 0 01.515-.139c.261 0 .472.071.631.213s.253.343.279.602h-.41c-.02-.17-.069-.293-.15-.368-.079-.076-.196-.113-.35-.113a.48.48 0 00-.413.197c-.095.13-.144.321-.147.575v.21c0 .256.046.451.137.586s.227.201.403.201c.161 0 .283-.036.365-.109s.133-.193.155-.363h.41zm2.261-.351c0 .232-.04.436-.12.612-.081.175-.196.309-.345.403s-.32.14-.515.14a.96.96 0 01-.514-.14.946.946 0 01-.346-.396l-.002-.006a1.394 1.394 0 01-.123-.578v-.023.001-.133c0-.231.04-.435.122-.613s.198-.312.347-.405c.15-.094.321-.141.514-.141s.365.047.513.14a.91.91 0 01.347.4c.081.173.123.376.123.607v.132zm-.412-.124c0-.263-.05-.463-.149-.603a.485.485 0 00-.4-.21l-.023.001h.001-.017a.488.488 0 00-.4.209l-.001.002c-.1.139-.151.335-.153.591v.137c0 .26.051.461.152.604s.243.213.423.213c.183 0 .323-.07.42-.209.099-.139.148-.342.148-.609v-.124z"/>
</symbol>
<symbol id="client-logo-2" viewBox="0 0 32 32">
<path fill="" d="M14.14 1.806h.084c.156 0 .324.015.49.03a13.96 13.96 0 012.18.329V.403a12.432 12.432 0 00-2.207-.357l-.042-.002c-.254-.02-.571-.035-.889-.043H13.472c-1.523.006-3.04.201-4.515.582a18.28 18.28 0 00-4.79 1.948v17.475a18.922 18.922 0 014.431-1.75l.135-.029a19.11 19.11 0 013.78-.586l.052-.002h.052c.216-.011.433-.017.655-.018V15.83c-1.78.024-3.493.264-5.129.695l.147-.033c-.603.157-1.185.326-1.731.513l-.623.212V3.591l.266-.128c1.89-.918 4.096-1.513 6.424-1.649l.047-.002.028-.001.029.001h-.001c.248-.012.497-.018.742-.018h.28c.129.003.258.006.388.014z"/>
<path fill="" d="M18.529 3.651h-.016c-.915 0-1.811-.077-2.684-.225l.094.013c-.277-.047-.55-.103-.814-.164V20.55c1.12.277 2.271.412 3.425.404a18.446 18.446 0 004.644-.61l-.128.029a18.299 18.299 0 004.877-1.995l-.085.047V1.262a19.021 19.021 0 01-4.429 1.751l-.136.03a19.345 19.345 0 01-4.746.609zm6.908.299l.623-.209v13.63l-.266.129c-.903.442-1.962.834-3.065 1.118l-.119.026c-1.331.345-2.7.521-4.074.527-.411 0-.818-.017-1.214-.052l-.426-.038V5.064l.497.033c.361.023.735.034 1.141.034a21.098 21.098 0 005.173-.663 28.128 28.128 0 001.731-.518zM5.377 25.977a.916.916 0 00-.661-.281l-.033.001h.002-.014c-.139 0-.272.028-.393.078l.007-.003a.904.904 0 00-.51.512l-.002.006a1.002 1.002 0 00-.072.386v2.335c-.006.164.026.328.092.479a.83.83 0 00.554.479c.114.031.231.048.349.048a.984.984 0 00.968-.982v-.262h-.61v.221c0 .07-.013.138-.038.199l.001-.004a.392.392 0 01-.088.132.426.426 0 01-.255.089.308.308 0 01-.285-.125l-.001-.001a.548.548 0 01-.082-.289l.001-.025v.001-2.177a.74.74 0 01.075-.349.31.31 0 01.262-.143l.038.002H4.68h.012c.107 0 .201.052.26.131l.001.001a.494.494 0 01.102.301v.012-.001.202h.604v-.238-.011c0-.143-.027-.28-.077-.405l.003.007a.955.955 0 00-.205-.329zm3.625-.026a1.083 1.083 0 00-.694-.257 1.075 1.075 0 00-.364.066.965.965 0 00-.556.512l-.002.006a1.083 1.083 0 00-.089.452v2.239c-.004.157.026.314.089.458.055.12.135.227.236.313a.964.964 0 00.322.197 1.049 1.049 0 001.059-.198l-.001.001a.948.948 0 00.23-.313c.063-.145.093-.302.089-.458v-2.24-.02c0-.156-.033-.305-.092-.439l.003.007a1.016 1.016 0 00-.23-.327zm-.284 3.018l.002.035a.398.398 0 01-.123.289.446.446 0 01-.575 0l.001.001a.398.398 0 01-.121-.326v.002-2.24l-.001-.034a.4.4 0 01.123-.289.446.446 0 01.575 0l-.001-.001a.398.398 0 01.121.326v-.002 2.239zm5.046 1v-4.24h-.586l-.771 2.244h-.01l-.778-2.244h-.58v4.24h.606V27.39h.011l.593 1.823h.302l.598-1.823h.01v2.578h.606zm3.441-3.942a.837.837 0 00-.343-.232 1.33 1.33 0 00-.414-.065h-.026.001-.9v4.239h.604v-1.655h.311c.189.009.376-.031.545-.116a.894.894 0 00.329-.32l.002-.004a1.02 1.02 0 00.139-.369c.023-.159.034-.32.033-.482a2.426 2.426 0 00-.059-.606.906.906 0 00-.223-.39zm-.311 1.292a.538.538 0 01-.057.224l.001-.003a.342.342 0 01-.154.147l-.002.001a.617.617 0 01-.254.054l-.033-.001h.002-.276V26.3h.311l.029-.001c.088 0 .172.02.247.055l-.004-.002c.062.036.111.09.141.155l.001.002a.615.615 0 01.053.236v.281c0 .098.006.201 0 .291h-.006zm3.172-1.59h-.495l-.934 4.24h.604l.177-.911h.823l.178.911h.604l-.958-4.24zm-.557 2.752l.297-1.537h.011l.295 1.537h-.604zm4.46-.198h-.011l-.913-2.554h-.58v4.24h.604v-2.55h.012l.923 2.549h.569v-4.239h-.604v2.554zm3.691-2.554l-.486 1.686h-.012l-.486-1.686h-.639l.83 2.448v1.791h.604v-1.791l.83-2.447h-.64zM3.692 31.166h.291v.817h.198v-.817h.289v-.167h-.778v.167zm2.448-.167l-.382.984h.21l.081-.224h.392l.084.224h.215l-.391-.985h-.21zm-.031.594l.134-.365.134.365h-.268zm2.45.027h.228v.127a.378.378 0 01-.234.083h-.014a.25.25 0 01-.195-.094.406.406 0 01-.073-.234l.001-.023v.001c0-.219.095-.329.283-.329l.021-.001c.097 0 .178.067.201.157v.001l.194-.038c-.042-.192-.18-.289-.417-.289h-.013a.492.492 0 00-.331.127.48.48 0 00-.141.38v-.002.023c0 .132.048.254.127.347l-.001-.001c.087.09.209.146.343.146L8.57 32h-.001.016c.155 0 .296-.06.402-.157v-.388h-.426v.166zm2.471-.621h-.199v.984h.689v-.167h-.49v-.817zm2.089 0h-.199v.984h.199v-.985zm2.042.656l-.403-.657h-.193v.984h.185v-.643l.396.643h.198v-.985h-.182v.658zm1.846-.105h.49v-.167h-.49v-.216h.527V31h-.727v.984h.747v-.167h-.548v-.266zm4.477-.164h-.388v-.388h-.198v.984h.198v-.431h.388v.431h.198v-.985h-.197v.388zm1.858.164h.492v-.167h-.492v-.216h.529V31h-.726v.984h.746v-.167h-.548v-.266zm2.518 0c.171-.027.258-.118.258-.274a.23.23 0 00-.096-.219h-.001a.555.555 0 00-.25-.059l-.04.001h.002-.417v.984h.198v-.412h.055c.039 0 .076.008.109.023l-.002-.001a.201.201 0 01.07.072l.215.313h.236l-.12-.192a.704.704 0 00-.215-.235l-.002-.002zm-.199-.137h-.146v-.247h.156a.515.515 0 01.205.024l-.004-.001a.13.13 0 01-.009.2.537.537 0 01-.164.025l-.039-.001h.002zm2.099.137h.49v-.167h-.49v-.216h.529V31h-.728v.984h.747v-.167h-.548v-.266z"/>
</symbol>
<symbol id="client-logo-3" viewBox="0 0 32 32">
<path fill="" d="M5.215 30.852c.024 0 .045.01.061.025l.157.159a1.28 1.28 0 01-.441.302 1.64 1.64 0 01-.625.109h-.031c-.2 0-.391-.037-.568-.105l.011.004a1.277 1.277 0 01-.443-.286 1.28 1.28 0 01-.283-.433l-.003-.009a1.53 1.53 0 01-.1-.548v-.019-.019c0-.197.04-.386.111-.557l-.004.01a1.308 1.308 0 01.774-.729 1.72 1.72 0 01.586-.101h.021-.001c.193-.005.384.027.562.091.155.062.298.149.421.256l-.131.17a.118.118 0 01-.033.03h-.001a.088.088 0 01-.046.013h-.007a.118.118 0 01-.058-.019l-.07-.046-.098-.057a1.038 1.038 0 00-.303-.1l-.006-.001a1.221 1.221 0 00-.217-.018h-.017.001-.014c-.151 0-.296.028-.429.079l.008-.003a.992.992 0 00-.342.214.978.978 0 00-.221.34 1.189 1.189 0 00-.081.434v.016-.001c-.002.155.025.309.08.455.048.125.122.24.218.339.09.091.201.163.325.21.128.049.265.073.404.072.08.001.16-.004.239-.015a.907.907 0 00.362-.12c.059-.036.11-.073.157-.113l-.002.001a.12.12 0 01.074-.029zm4.527-.8c.002.192-.034.382-.106.562a1.239 1.239 0 01-.294.437h-.001c-.129.122-.283.22-.454.283l-.009.003a1.798 1.798 0 01-1.204-.004l.013.004a1.29 1.29 0 01-.755-.721l-.003-.009a1.54 1.54 0 01.004-1.138l-.004.01a1.31 1.31 0 01.297-.442c.129-.118.282-.213.451-.274l.009-.003a1.78 1.78 0 011.192 0 1.287 1.287 0 01.758.724c.072.181.109.373.107.566zm-.411 0v-.024a1.24 1.24 0 00-.078-.437l.003.009a.934.934 0 00-.21-.339.918.918 0 00-.325-.211l-.006-.002a1.3 1.3 0 00-.866 0 .92.92 0 00-.54.545l-.002.006c-.099.295-.099.61 0 .904a.916.916 0 00.543.55c.28.097.587.097.866 0a.913.913 0 00.331-.212.955.955 0 00.21-.338c.053-.145.078-.299.075-.452zm3.499.474l.042.101c.015-.036.029-.069.045-.101s.032-.067.051-.099l1.001-1.681c.02-.029.037-.047.057-.053s.044-.01.069-.01h.014-.001.296v2.734h-.35v-2.095l-.001-.047.002-.049v.002l-1.007 1.704a.153.153 0 01-.059.062h-.001a.171.171 0 01-.085.023h-.057c-.03 0-.061-.008-.086-.023s-.046-.036-.059-.062v-.001l-1.036-1.714v2.194h-.339v-2.728h.31c.024 0 .048.003.07.01h-.002a.116.116 0 01.055.052v.001l1.023 1.682c.018.028.036.06.05.094l.001.004zm3.77-.136v1.024h-.392v-2.73h.874c.165-.003.329.018.488.06a.937.937 0 01.345.17.702.702 0 01.194.263l.002.005c.046.111.069.23.067.349v.01a.82.82 0 01-.075.344l.002-.005a.757.757 0 01-.21.272l-.001.001a.973.973 0 01-.34.179l-.007.002a1.533 1.533 0 01-.472.064l-.474-.008zm0-.293h.475a.994.994 0 00.303-.041.653.653 0 00.221-.118l-.001.001a.493.493 0 00.132-.178l.001-.003a.54.54 0 00.047-.223v-.006l.001-.028a.48.48 0 00-.042-.197l.001.003a.524.524 0 00-.137-.186l-.001-.001a.799.799 0 00-.529-.147h.003-.475v1.125zm5.267 1.321h-.314a.143.143 0 01-.082-.026.179.179 0 01-.051-.062v-.001l-.267-.661h-1.338l-.277.661a.161.161 0 01-.048.061.138.138 0 01-.085.028h-.313l1.176-2.734h.408l1.192 2.733zm-1.939-1.015h1.105l-.466-1.112a1.775 1.775 0 01-.085-.244l-.003-.013-.045.143a1.464 1.464 0 01-.043.116l-.462 1.111zm3.632-1.706a.148.148 0 01.059.049l1.714 2.06v-2.122h.35v2.733h-.203a.186.186 0 01-.074-.016h.001a.204.204 0 01-.062-.051l-1.714-2.059a.737.737 0 010 .094v2.031h-.35v-2.733h.208c.024 0 .048.004.07.013zm5.014 1.634v1.085h-.392v-1.084l-1.083-1.646h.358c.028 0 .054.009.076.023.022.018.04.039.053.062l.678 1.062c.046.07.087.15.117.235l.002.008.051-.117a.969.969 0 01.069-.129l-.002.004.668-1.069a.316.316 0 01.051-.058.127.127 0 01.079-.028h.361l-1.086 1.653zm-15.937-6.234c.171.021.343.037.518.051 2.644-1.092 4.881-2.879 6.43-5.138s2.344-4.889 2.284-7.563l-2.914-2.69c.193.887.304 1.906.304 2.951 0 2.001-.406 3.908-1.139 5.642l.036-.095c-1.116 2.709-3.027 5.078-5.518 6.842z"/>
<path fill="" d="M11.596 23.972l.078.015c2.663-1.758 4.693-4.213 5.827-7.048.642-1.548 1.014-3.346 1.014-5.232a14.05 14.05 0 00-.498-3.716l.023.098-4.151-3.832c1.678 3.149 2.354 6.674 1.949 10.164s-1.877 6.802-4.242 9.55zm14.077-9.366c-.705 2.937-2.418 5.586-4.884 7.554a15.221 15.221 0 01-2.24 1.497l-.08.04c2.008-.545 3.854-1.508 5.394-2.814s2.735-2.924 3.493-4.725l-1.684-1.552z"/>
<path fill="" d="M25.013 14.173l-2.397-2.213c-.046 2.523-.823 4.987-2.25 7.139s-3.453 3.911-5.866 5.095h.012c.537 0 1.074-.03 1.608-.088 2.255-.85 4.248-2.202 5.799-3.934s2.613-3.794 3.093-5.998zM11.944 2.643L9.085 0C6.529.912 4.331 2.514 2.778 4.599 1.225 6.682.389 9.151.382 11.68c.01 2.796 1.029 5.507 2.896 7.707s4.476 3.762 7.414 4.44c2.622-2.949 4.158-6.593 4.383-10.403s-.872-7.586-3.131-10.781zm19.675 11.123c-.011-3.317-1.442-6.494-3.982-8.838s-5.982-3.667-9.575-3.676h-.024a14.38 14.38 0 00-4.93.865l.1-.032 17.506 16.16a11.36 11.36 0 00.905-4.481z"/>
</symbol>
<symbol id="client-logo-4" viewBox="0 0 32 32">
<path fill="" d="M4.982 12.851h-.001c-.909 0-1.646.676-1.646 1.509v.001c0 .834.737 1.509 1.646 1.509h.001c.909 0 1.646-.676 1.646-1.509v-.001c0-.834-.737-1.509-1.646-1.509zm12.146-.482c-.002-1.158-.505-2.267-1.397-3.086s-2.102-1.28-3.365-1.282c-1.262.002-2.473.463-3.366 1.282s-1.396 1.929-1.398 3.087v6.384s9.525-.973 9.526-6.384v-.001zM0 20.848c.002.805.352 1.577.973 2.147s1.462.891 2.341.894c.878-.003 1.719-.324 2.34-.893s.971-1.341.974-2.146v-4.443S0 17.085 0 20.849zm3.314.797a.925.925 0 01-.482-.134.816.816 0 01-.317-.352l-.002-.005a.717.717 0 01-.048-.465l-.001.005c.034-.155.116-.296.237-.407a.898.898 0 01.614-.233c.119 0 .234.022.339.063l-.006-.002c.158.06.294.162.389.293a.753.753 0 01-.107 1.008l-.001.001c-.08.074-.176.133-.282.173s-.219.061-.333.061v-.003zm6.731-.443h-.658v.681h-.343v-1.665h1.084v.278h-.741v.43h.659v.277zm1.649-.114c0 .164-.029.308-.087.431a.651.651 0 01-.607.387h-.014.001a.693.693 0 01-.369-.099.68.68 0 01-.25-.279l-.002-.004a.97.97 0 01-.091-.412v-.015.001-.082c0-.164.029-.308.088-.432a.66.66 0 01.621-.388c.139 0 .261.034.369.101a.654.654 0 01.251.287.994.994 0 01.089.431v.074zm-.348-.076c0-.174-.031-.307-.094-.398a.305.305 0 00-.254-.136h-.014.001-.013a.305.305 0 00-.253.134l-.001.001c-.062.089-.094.22-.095.393v.081c0 .17.031.302.094.395s.152.14.27.14h.014a.3.3 0 00.251-.134l.001-.001c.062-.091.093-.222.094-.396v-.081zm1.46.433v-.01a.175.175 0 00-.068-.138.877.877 0 00-.247-.11 1.742 1.742 0 01-.292-.119l.01.005c-.189-.102-.283-.24-.283-.413 0-.09.025-.17.075-.24.051-.071.124-.126.219-.166s.202-.059.32-.059c.119 0 .225.021.318.065s.165.103.216.182a.473.473 0 01.078.268h-.343c0-.076-.023-.135-.072-.177a.294.294 0 00-.203-.064.316.316 0 00-.195.053.165.165 0 00-.07.136v.004c0 .054.027.099.082.136s.135.071.241.103c.195.059.337.131.427.219s.134.195.134.325c0 .144-.055.257-.164.34s-.256.122-.44.122a.864.864 0 01-.35-.069.56.56 0 01-.24-.191l-.001-.002a.489.489 0 01-.082-.274v-.011.001h.344c0 .183.11.276.329.276a.321.321 0 00.191-.049.162.162 0 00.069-.133v-.007zm1.83-.949h-.51v1.387h-.343v-1.387h-.503v-.278h1.356v.278zm1.199.665h-.658v.446h.773v.276h-1.116v-1.665h1.114v.278h-.771v.397h.658v.268zm.931.112h-.273v.61h-.343v-1.665h.619c.197 0 .348.044.455.131s.16.212.16.372a.518.518 0 01-.074.285.5.5 0 01-.22.179l-.003.001.36.68v.016h-.368l-.312-.609zm-.273-.278h.277c.086 0 .153-.021.2-.065a.236.236 0 00.071-.169v-.013.001a.25.25 0 00-.067-.185c-.044-.045-.112-.067-.204-.067h-.276v.5zm2.079.301v.587h-.343v-1.665h.649c.125 0 .235.023.329.069s.169.111.22.195c.051.084.076.18.076.287 0 .163-.056.292-.168.386s-.266.14-.463.14h-.3zm0-.278h.306c.091 0 .16-.021.207-.064a.233.233 0 00.072-.183v-.012a.273.273 0 00-.072-.186.273.273 0 00-.199-.078h-.315v.523zm2.169.143h-.658v.446h.773v.276H19.74v-1.665h1.114v.278h-.771v.397h.659v.268zm1.592-.665h-.51v1.387h-.343v-1.387h-.503v-.278h1.356v.278zm1.198.665h-.658v.446h.773v.276H22.53v-1.665h1.114v.278h-.77v.397h.658v.268zm.932.112h-.273v.61h-.343v-1.665h.619c.197 0 .348.044.455.131s.16.212.16.372a.518.518 0 01-.074.285.5.5 0 01-.22.179l-.003.001.36.68v.016h-.368l-.312-.609zm-.273-.278h.277c.086 0 .153-.021.2-.065a.236.236 0 00.071-.169v-.013.001c0-.078-.023-.14-.067-.185s-.112-.067-.204-.067h-.276v.5zm2.016.451v-.01a.175.175 0 00-.069-.139.877.877 0 00-.247-.11 1.742 1.742 0 01-.292-.119l.01.005c-.189-.102-.283-.24-.283-.413 0-.09.025-.17.075-.24.051-.071.124-.126.219-.166s.202-.059.32-.059c.119 0 .225.021.318.065s.165.103.216.182a.473.473 0 01.078.268h-.343a.223.223 0 00-.072-.177.294.294 0 00-.203-.064.316.316 0 00-.195.053.165.165 0 00-.07.136v.004c0 .054.027.099.082.136s.135.071.241.103c.195.059.337.131.427.219s.133.195.133.325c0 .144-.055.257-.163.34s-.256.122-.44.122a.864.864 0 01-.35-.069.567.567 0 01-.24-.191l-.001-.002a.489.489 0 01-.082-.274v-.011.001h.344c0 .183.11.276.329.276a.321.321 0 00.191-.049.162.162 0 00.069-.133v-.007z"/>
</symbol>
<symbol id="client-logo-5" viewBox="0 0 32 32">
<path fill="" d="M2.434 24.558a.852.852 0 01.188.548.865.865 0 01-.29.691l-.001.001a1.259 1.259 0 01-.846.253H-.001v-3.474h1.455a1.24 1.24 0 01.81.233l-.004-.002a.792.792 0 01.283.608l-.001.044v-.002a.812.812 0 01-.169.532.79.79 0 01-.443.271.842.842 0 01.502.297zm-1.742-.525h.621a.581.581 0 00.396-.116.412.412 0 00.135-.305l-.002-.036v.002l.001-.03a.426.426 0 00-.133-.31.597.597 0 00-.41-.117h.002-.611v.911zm1.078 1.332a.428.428 0 00.148-.325l-.001-.029v.001l.001-.025a.44.44 0 00-.15-.331h-.001a.635.635 0 00-.382-.127l-.043.001h.002-.651v.955h.661a.657.657 0 00.418-.12zm3.639.686L4.6 24.693h-.304v1.358H3.6v-3.474h1.318a1.294 1.294 0 01.92.297l-.002-.002a1.109 1.109 0 01.096 1.44l.002-.003a1.07 1.07 0 01-.629.353l.862 1.388h-.758zM4.296 24.22h.569c.396 0 .593-.175.593-.526l.001-.03a.519.519 0 00-.146-.361.612.612 0 00-.451-.14h.002-.577l.007 1.058zm4.919 1.132H7.828l-.245.7h-.73l1.275-3.435h.789l1.269 3.435h-.73l-.24-.699zm-.186-.526l-.507-1.466-.507 1.466h1.014zm4.951 1.225h-.692l-1.55-2.362v2.362h-.69v-3.474h.69l1.55 2.376v-2.376h.692v3.474zm3.945-.832a1.507 1.507 0 01-.617.609l-.008.004a2.037 2.037 0 01-.972.219h-1.231v-3.474h1.231l.054-.001c.335 0 .651.079.93.22l-.012-.005c.265.133.483.345.625.606.137.265.216.579.216.911s-.08.646-.222.923l.005-.011zm-.791-.083a1.27 1.27 0 00-.002-1.66l.001.002a1.193 1.193 0 00-.791-.298l-.078.002h.003-.48v2.249h.48a1.197 1.197 0 00.867-.297l-.001.001zM9.648 3.254s8.923 3.382 8.733 8.277v8.278s-8.916-3.384-8.73-8.278l-.003-8.277zm16.683 14.617a12.057 12.057 0 015.615-2.093l.054-.005v-2.591a11.716 11.716 0 00-5.641 4.642l-.028.048z"/>
<path fill="" d="M25.318 18.652c1.393-2.778 3.739-4.906 6.598-5.985l.084-.028V5.172S19.292 9.99 19.561 16.959v11.786s.566-.215 1.457-.619c0-.377 0-.757.041-1.139a12.258 12.258 0 014.243-8.322l.016-.014z"/>
<path fill="" d="M24.11 23.03a12.15 12.15 0 01.445-2.414 11.344 11.344 0 00-2.691 7.106v.013a34.921 34.921 0 002.618-1.387l-.174.094a11.915 11.915 0 01-.239-2.407c0-.354.015-.705.044-1.051l-.003.045zm.505.043a11.724 11.724 0 00.169 3.163l-.012-.073c3.472-2.086 7.373-5.309 7.223-9.204v-.339a11.372 11.372 0 00-6.61 3.102l.004-.004a11.356 11.356 0 00-.771 3.312l-.003.042z"/>
</symbol>
<symbol id="client-logo-6" viewBox="0 0 32 32">
<path fill="" d="M16.086 15.349a1.096 1.096 0 01-.205-.721v.003-1.039c0-.318.068-.56.204-.726s.37-.248.701-.247c.311 0 .532.07.663.211.142.18.212.4.196.622v.244h-.556v-.247a1.4 1.4 0 00-.016-.242.24.24 0 00-.079-.144.302.302 0 00-.178-.057l-.024.001h.001l-.023-.001a.328.328 0 00-.19.061l.001-.001a.287.287 0 00-.092.156v.002a1.235 1.235 0 00-.022.235v.023-.001 1.261a.682.682 0 00.071.354.262.262 0 00.11.085l.002.001a.285.285 0 00.111.022l.034-.002h-.001a.288.288 0 00.198-.058l-.001.001a.257.257 0 00.082-.152v-.001a1.53 1.53 0 00.018-.253v-.256h.556v.234l.002.063a.993.993 0 01-.196.593l.002-.003c-.128.155-.346.232-.666.232s-.562-.083-.7-.253zm2.318.01c-.141-.162-.211-.397-.211-.709v-1.093c0-.309.07-.542.211-.7s.375-.237.705-.237c.327 0 .561.079.702.237s.212.392.212.701v1.093c0 .309-.072.545-.215.708s-.375.244-.699.244c-.324 0-.563-.083-.705-.243zm.964-.262a.649.649 0 00.067-.323v-1.338l.001-.036a.634.634 0 00-.068-.285l.002.004a.259.259 0 00-.112-.087l-.002-.001a.289.289 0 00-.148-.018h.002c-.011-.002-.024-.002-.038-.002a.298.298 0 00-.112.022l.002-.001a.28.28 0 00-.114.086v.001a.597.597 0 00-.067.319v-.002 1.344a.633.633 0 00.067.324.338.338 0 00.115.079l.002.001a.365.365 0 00.289-.001l-.002.001a.334.334 0 00.117-.08v-.006zm1.324-2.445h.599l.451 2.016.461-2.016h.583l.059 2.911h-.43l-.046-2.023-.445 2.023h-.346l-.461-2.03-.043 2.03h-.436l.054-2.911zm2.825 0h.933c.538 0 .807.275.807.826 0 .528-.283.791-.849.791h-.318v1.294h-.576l.004-2.911zm.797 1.244c.057.006.115.002.169-.014s.105-.042.147-.078a.497.497 0 00.083-.329l.001-.032a.949.949 0 00-.03-.239l.001.007a.22.22 0 00-.043-.08.248.248 0 00-.071-.058l-.001-.001a.559.559 0 00-.227-.048l-.032.001h.001-.224v.87h.224zm1.774-1.244h.619l.635 2.911h-.537l-.125-.671h-.552l-.129.671h-.545l.635-2.911zm.528 1.902l-.216-1.221-.215 1.222h.431zm1.238-1.902h.403l.772 1.66v-1.66h.478v2.911h-.384l-.777-1.733v1.733h-.494l.001-2.911zm2.774 1.8l-.642-1.797h.541l.392 1.154.367-1.154h.529l-.634 1.797v1.11h-.553v-1.11zm-13.652 2.383v.152h-.47v1.183h-.197v-1.183h-.472v-.152h1.14zm1.474 1.335h-.156a.065.065 0 01-.039-.013.072.072 0 01-.025-.03l-.136-.317h-.652l-.136.317a.082.082 0 01-.021.036.068.068 0 01-.039.013h-.156l.576-1.335h.2l.583 1.33zm-.954-.496h.544l-.23-.543a.915.915 0 01-.041-.119l-.002-.007-.022.071-.021.056-.228.543zm1.947.365h.108a.708.708 0 00.175-.04l.077-.033v-.3h-.233a.045.045 0 01-.037-.021.028.028 0 01-.003-.013v-.102h.447v.511a.847.847 0 01-.384.136h-.004a1.674 1.674 0 01-.165.008h-.011a.814.814 0 01-.289-.052l.006.002a.718.718 0 01-.231-.14h.001a.646.646 0 01-.147-.207l-.002-.004a.7.7 0 01-.053-.268v-.01-.009c0-.097.019-.19.054-.275l-.002.005a.617.617 0 01.148-.211.685.685 0 01.226-.137l.005-.002a.922.922 0 01.309-.05c.054 0 .107.004.16.012a.704.704 0 01.353.157l-.056.083a.052.052 0 01-.018.018.06.06 0 01-.026.007.066.066 0 01-.036-.011.969.969 0 01-.059-.033l.003.002a.461.461 0 00-.074-.035l-.003-.001a.738.738 0 00-.102-.029l-.004-.001a.769.769 0 00-.14-.012H19.423a.669.669 0 00-.22.038l.005-.001a.46.46 0 00-.276.272.659.659 0 00.001.449l-.001-.005a.49.49 0 00.283.274.605.605 0 00.228.026zm1.837-.022h.629v.152h-.822v-1.335h.197l-.005 1.183zm1.284.153h-.197v-1.335h.197v1.335zm.733-1.329a.089.089 0 01.03.024l.842 1.006-.001-.024.001-.025v.001-.995h.172v1.34H24.235a.086.086 0 01-.036-.008h.001a.126.126 0 01-.031-.025l-.841-1.005v1.038h-.165v-1.335h.102c.012 0 .023.002.033.007h-.001zm2.494-.006v.147h-.698v.441h.566v.142h-.566v.455h.698v.147h-.901v-1.332h.901zM5.143 8.591l8.75 2.279v7.985l-8.749-2.278V8.591zm-.561-.681v9.055l9.871 2.572v-9.053L4.582 7.911z"/>
<path fill="" d="M9.872 23.739L0 21.165v-9.053l9.872 2.573v9.055z"/>
<path fill="" d="M4.745 8.488l8.635 2.25-3.672 3.369-8.636-2.251 3.674-3.369zm-.163-.578L0 12.112l9.872 2.572 4.581-4.202-9.871-2.573zm5.846 15.32l4.025-3.693-4.025-1.05v4.742z"/>
</symbol>
<symbol id="contact-email" viewBox="0 0 32 32">
<path fill="" d="M29 5H3C1.346 5 0 6.218 0 7.714v16.28c0 1.496 1.346 2.712 3 2.712h26c1.654 0 3-1.216 3-2.714V7.712C32 6.22 30.654 5 29 5zm0 1.808a1.1 1.1 0 01.384.07L16 17.37 2.616 6.878c.114-.044.246-.07.384-.07h26zm0 18.09H3c-.552 0-1-.406-1-.906V8.79l13.344 10.46c.19.148.422.22.656.22h.009c.245 0 .47-.083.65-.222l-.002.002L30.001 8.79v15.202c0 .5-.448.906-1 .906z"/>
</symbol>
<symbol id="contact-tel" viewBox="0 0 32 32">
<path fill="" d="M23.467 0H8.534c-1.764 0-3.2 1.299-3.2 2.895v25.082c0 1.596 1.436 2.895 3.2 2.895h14.933c1.764 0 3.2-1.299 3.2-2.895V2.895c0-1.596-1.436-2.895-3.2-2.895zM8.533 1.929h14.933c.589 0 1.067.433 1.067.966v20.258H7.466V2.895c0-.533.478-.966 1.067-.966zm14.934 27.012H8.534c-.589 0-1.067-.431-1.067-.964v-2.895h17.067v2.895c0 .533-.478.964-1.067.964z"/>
<path fill="var(--color2, #757575)" d="M10.355 26.33a.9.9 0 01.001 1.365l-.001.001c-.201.176-.465.283-.755.283s-.555-.107-.756-.285l.001.001a.9.9 0 01-.001-1.365l.001-.001c.201-.176.465-.283.755-.283s.554.107.757.285l-.001-.001z"/>
</symbol>
<symbol id="feature-sat" viewBox="0 0 32 32">
<path fill="var(--color3, #212121)" d="M30.773 22.098l-8.443-8.505.937-4.616c.225.09.485.144.758.146h.033a2.16 2.16 0 10-2.029-1.42l-.005-.015-4.96.606L8.973.161a.53.53 0 00-.376-.16.536.536 0 00-.373.155L6.712 1.66a.535.535 0 000 .754l.814.825C6.383 5.301 5.71 7.761 5.71 10.378c0 4.106 1.656 7.824 4.336 10.525l-.001-.001a.49.49 0 00.146.097 2.986 2.986 0 00-.052.546v6.188h-6.4a2.669 2.669 0 00-2.667 2.666v1.067c0 .295.239.534.534.534H26.14a.534.534 0 00.533-.534v-1.067a2.67 2.67 0 00-2.666-2.666h-6.4v-2.742a14.784 14.784 0 0010.166-1.502l-.077.039.818.823a.534.534 0 00.376.16.536.536 0 00.373-.155l1.512-1.504a.535.535 0 000-.754zM23.28 6.233a1.067 1.067 0 11.752 1.822h-.004a1.066 1.066 0 01-.747-1.822h-.002zm-1.256 3.504l-.598 2.946-1.175-1.183 1.774-1.763zm-.605-.902l-1.92 1.909-1.486-1.493 3.406-.416zM24.004 28.8a1.6 1.6 0 011.6 1.6v.534H2.138V30.4a1.6 1.6 0 011.6-1.6h20.267zm-7.466-2.134v1.067h-5.334v-1.067h5.334zM11.204 25.6v-4.053c0-1.294 1.196-2.346 2.667-2.346s2.667 1.053 2.667 2.346V25.6h-5.334zm6.4-1.696v-2.357c0-1.882-1.675-3.413-3.733-3.413h-.058c-1.353 0-2.54.707-3.213 1.771l-.009.016a13.817 13.817 0 01-3.812-9.55c0-2.314.567-4.496 1.569-6.414l-.036.077 18.602 18.709c-1.823.947-3.979 1.502-6.266 1.502-1.079 0-2.128-.124-3.136-.357l.093.018zm11.289-.684L7.836 2.039l.754-.752 7.935 7.98c.004 0 .006.007.01.01l13.114 13.191-.757.752z"/>
<path fill="var(--color4, #2196f3)" d="M13.876 20.267h-.007a1.6 1.6 0 00-.003 3.2h.007a1.6 1.6 0 00.002-3.2zm.373 1.978a.534.534 0 11-.378-.912.533.533 0 01.374.911h.005z"/>
</symbol>
<symbol id="feature-astronaut" viewBox="0 0 32 32">
<path fill="var(--color4, #2196f3)" d="M31.974 4.524a.535.535 0 00-.427-.362h-.003l-1.91-.278-.855-1.731c-.179-.365-.777-.365-.956 0l-.855 1.731-1.911.278a.534.534 0 00-.296.91l1.383 1.348-.326 1.903a.532.532 0 00.774.562l1.708-.899 1.709.899a.534.534 0 00.773-.565v.003l-.326-1.903 1.383-1.348a.532.532 0 00.133-.551l.001.004zm-2.463 1.327a.534.534 0 00-.153.472l.191 1.114-1.001-.526a.524.524 0 00-.499.001l.003-.001-1.001.526.192-1.114a.533.533 0 00-.153-.472l-.811-.789 1.119-.163a.532.532 0 00.402-.292l.5-1.013.501 1.013a.532.532 0 00.402.292l1.119.162-.809.79zm-3.377 14.671h-1.067v1.067h1.067v-1.067zm0 2.134h-1.067v1.066h1.067v-1.066zm1.066-1.067h-1.067v1.067H27.2v-1.067zM25.067 21.589H24v1.067h1.067v-1.067zm-2.667 4.8h-1.067v1.067H22.4v-1.067zm0 2.134h-1.067v1.067H22.4v-1.067zm1.066-1.067h-1.067v1.067h1.067v-1.067zm-2.132 0h-1.067v1.067h1.067v-1.067zM16 24.256h-1.067v1.067H16v-1.067zm0 2.133h-1.067v1.067H16v-1.067zm1.067-1.067H16v1.067h1.067v-1.067zm-2.134 0h-1.066v1.067h1.066v-1.067zm-9.066-19.2H4.8v1.066h1.067V6.122zm0 2.134H4.8v1.066h1.067V8.256zm1.066-1.067H5.866v1.067h1.066V7.189zm-2.133 0H3.733v1.067H4.8V7.189z"/>
<path fill="var(--color3, #212121)" d="M24.715 14.16a1.774 1.774 0 00-1.179-.703l-.009-.001a1.769 1.769 0 00-1.344.355l.004-.003-1.253.96-1.898 1.417-1.358-.541c2.421-1.086 4.113-3.508 4.113-6.32 0-3.823-3.122-6.934-6.961-6.934S7.869 5.5 7.869 9.324c0 1.386.415 2.674 1.12 3.759l-2.768-.024c-.009 0-.016.005-.023.005a.511.511 0 00-.159.033l.004-.001c-.013.005-.026.007-.038.013-.006.003-.013.003-.019.006l-3.233 1.596-.001.001-1.893.91a.429.429 0 00-.064.036l.001-.001a1.782 1.782 0 00-.594 2.306l-.005-.01c.22.424.592.742 1.043.885l.013.003a1.772 1.772 0 001.388-.133l-.009.005 1.388-.738 2.264-1.169 1.357-.008-5.442 5.415-.001.001-1.339 1.333c-.303.299-.49.714-.49 1.173v.005a1.66 1.66 0 001.666 1.663h.004a1.67 1.67 0 001.18-.485l1.314-1.309 1.741-1.3.901.897-3.102 3.088a1.645 1.645 0 00-.491 1.174v.004a1.662 1.662 0 001.666 1.664h.003a1.67 1.67 0 001.18-.485l4.488-4.472c.007-.006.016-.009.022-.016l5.166-5.658 3.471.494a.474.474 0 00.262-.032c.018-.006.033-.015.05-.023.019-.01.039-.015.058-.027l3.213-2.133c.012-.008.018-.021.029-.03.013-.01.029-.014.041-.026l1.271-1.191c.348-.326.564-.787.564-1.3 0-.4-.132-.769-.355-1.066l.003.005zM2.13 17.77a.706.706 0 01-.564.05l.005.001a.717.717 0 01-.214-1.258l.002-.001 1.314-.632.316.924.133.389-.992.527zm3.497-1.828l-1.548.8-.255-.746-.184-.537 2.027-1.001-.04 1.484zm15.1-6.62c0 .918-.219 1.785-.599 2.56l-4.181-1.899a1.865 1.865 0 00-.782-1.384l-.006-.004 1.463-4.861c2.378.756 4.105 2.974 4.105 5.588zm-11.789 0c0-3.235 2.644-5.867 5.894-5.867.253 0 .5.022.745.053l-1.432 4.753c-.019 0-.037-.006-.057-.006h-.001a1.872 1.872 0 00-1.872 1.867 1.873 1.873 0 001.872 1.867h.001c.695 0 1.295-.383 1.618-.944l3.863 1.755a5.893 5.893 0 01-4.737 2.389c-3.25 0-5.894-2.632-5.894-5.867zm5.957.8c0 .441-.362.8-.806.8h-.001a.804.804 0 01-.804-.8c0-.441.361-.8.806-.8s.806.359.806.8zM2.464 25.146a.606.606 0 01-.855.001.591.591 0 010-.844l.962-.959.852.848-.959.955zm3.214 3.734a.606.606 0 01-.855.001.591.591 0 010-.844l.963-.959.852.848-.96.955zm3.482-3.469l-.001.001-1.765 1.76-.852-.848 1.765-1.757a.527.527 0 00.09-.136c.007-.014.02-.026.026-.04.016-.041.019-.085.026-.128.003-.025.014-.048.014-.073 0-.035-.013-.07-.02-.105-.006-.032-.006-.064-.019-.096a.536.536 0 00-.092-.138c-.01-.012-.014-.027-.025-.038h-.001l-.001-.002-1.607-1.6c-.017-.017-.039-.024-.058-.038a.563.563 0 00-.084-.057l-.003-.001a.415.415 0 00-.09-.031l-.003-.001a.502.502 0 00-.101-.02h-.002l-.023-.001a.603.603 0 00-.075.005h.003c-.036.005-.069.009-.104.021a.512.512 0 00-.097.046l.002-.001c-.02.011-.042.015-.061.029l-1.773 1.324-.901-.897 2.399-2.386 4.361 4.289-.928.919zm6.819-7.017c-.015-.002-.03.004-.045.003l-.027-.001a.562.562 0 00-.092.008h.003a.484.484 0 00-.187.07l.002-.001a.492.492 0 00-.083.061c-.013.011-.028.016-.04.029l-4.698 5.146-4.328-4.256 2.833-2.818a.535.535 0 00-.378-.911h-.002l-2.219.013.028-1.607 3.104.027a6.928 6.928 0 004.978 2.101h.003c.438 0 .864-.046 1.28-.122.04.032.08.064.129.085l2.41.96.152.759.178.885-3.003-.427zm4.041.178l-.313-1.558 1.446-1.08.946 1.257-2.08 1.381zm3.754-2.831l-.838.785-.931-1.237.831-.637a.735.735 0 01.543-.143.718.718 0 01.621.71.71.71 0 01-.226.521z"/>
<path fill="var(--color3, #212121)" d="M13.602 18.544l-2.143-2.134a.53.53 0 00-.752 0l-2.143 2.134a.535.535 0 000 .756l2.143 2.134a.53.53 0 00.752 0l2.143-2.134a.532.532 0 000-.756zm-2.519 1.759l-1.387-1.381 1.386-1.381 1.387 1.381-1.387 1.381zm6.081-15.232l-.258 1.036c.071.018 1.738.452 1.738 2.149h1.067c0-2.017-1.666-2.965-2.547-3.184zm2.547 4.251h-1.067v1.066h1.067V9.322z"/>
</symbol>
<symbol id="feature-clock" viewBox="0 0 32 32">
<path fill="var(--color3, #212121)" d="M31.296 15.301C31.295 6.849 24.441-.002 15.988 0S.685 6.855.687 15.308c.002 6.788 4.422 12.543 10.541 14.545l.108.031a.667.667 0 00.529-.065.636.636 0 00.283-.357l3.865-12.25a1.913 1.913 0 10-.852-3.63l.011-.005-5.106-5.107a.638.638 0 00-.902.902l5.103 5.109a1.847 1.847 0 00-.191.826c0 .602.283 1.137.723 1.48l.004.003-3.682 11.673C3.843 25.782.117 17.709 2.797 10.431S13.551-.573 20.829 2.108c7.278 2.681 11.004 10.754 8.323 18.032-1.345 3.581-4.003 6.406-7.374 7.938l-.088.036-.398-1.874a.639.639 0 00-1.05-.343l.001-.001-3.837 3.426a.637.637 0 00.227 1.083l.005.001 4.899 1.563a.637.637 0 00.818-.744l.001.004-.391-1.839c5.528-2.374 9.329-7.772 9.329-14.057v-.034.002zm-15.304-.637a.638.638 0 010 1.276.638.638 0 010-1.276zm2.1 14.864l2.184-1.948.603 2.84-2.787-.892z"/>
<path fill="var(--color4, #2196f3)" d="M15.354 3.185V4.46a.638.638 0 001.276 0V3.185a.638.638 0 10-1.276 0zM3.876 14.664a.638.638 0 000 1.276h1.275a.638.638 0 000-1.276H3.876zm24.232 1.275a.638.638 0 000-1.276h-1.275a.638.638 0 000 1.276h1.275z"/>
</symbol>
<symbol id="feature-diagram" viewBox="0 0 32 32">
<path fill="var(--color4, #2196f3)" d="M14.926 14.965h1.066v4.798h-1.066v-4.798zm4.264 2.132h1.066v2.665H19.19v-2.665zm-8.529 1.599h1.066v1.066h-1.066v-1.066zm-3.198-.533h1.066v1.599H7.463v-1.599z"/>
<path fill="var(--color3, #212121)" d="M1.599 28.291h25.586a1.6 1.6 0 001.599-1.599V24.56a1.6 1.6 0 00-1.599-1.599h-.533V9.667l3.028-2.868a1.608 1.608 0 10-.742-.752l-.004-.01-2.281 2.162v-1.23a1.6 1.6 0 00-1.599-1.599H3.731a1.6 1.6 0 00-1.599 1.599v15.992h-.533A1.6 1.6 0 000 24.56v2.132a1.6 1.6 0 001.599 1.599zM30.384 4.837a.533.533 0 010 1.066.533.533 0 010-1.066zM3.198 6.969c0-.294.239-.533.533-.533h21.323c.294 0 .533.239.533.533v2.239l-1.066 1.013V8.036a.534.534 0 00-.534-.534H4.798a.534.534 0 00-.534.533v13.327c0 .294.239.533.534.533h19.189a.534.534 0 00.534-.533v-9.675l1.066-1.01V22.96H3.198V6.969zm4.798 6.93h-.005a1.6 1.6 0 101.112 2.748l1.853.93a.535.535 0 00.636-.122l3.939-4.432 3.872 2.902a.534.534 0 00.686-.039l3.365-3.188v8.131H5.331V8.568h18.123v2.661l-3.771 3.572-3.904-2.927a.534.534 0 00-.718.071v.001l-3.993 4.493-1.493-.746c.011-.064.017-.128.02-.193a1.6 1.6 0 00-1.599-1.599zm.533 1.599a.533.533 0 01-1.066 0 .533.533 0 011.066 0zm3.198 8.528h5.33v.533a.533.533 0 01-.533.533h-4.265a.533.533 0 01-.533-.533v-.533zm-10.66.534c0-.294.238-.533.533-.533h9.062v.533a1.6 1.6 0 001.599 1.599h4.265a1.6 1.6 0 001.599-1.599v-.533h9.062c.294 0 .533.239.533.533v2.132a.533.533 0 01-.533.533H1.601a.533.533 0 01-.533-.533V24.56z"/>
</symbol>
<symbol id="social-facebook" viewBox="0 0 32 32">
<path fill="" d="M20.529 5.313h2.921V.225C22.946.156 21.213 0 19.194 0c-4.212 0-7.097 2.649-7.097 7.519V12H7.449v5.688h4.648V32h5.699V17.689h4.46l.708-5.688h-5.169V8.082c.001-1.644.444-2.769 2.735-2.769z"/>
</symbol>
<symbol id="social-instagram" viewBox="0 0 32 32">
<path fill="" d="M31.969 9.408c-.075-1.7-.35-2.869-.744-3.882a7.806 7.806 0 00-1.851-2.838A7.867 7.867 0 0026.542.844C25.523.45 24.36.175 22.66.1 20.947.019 20.403 0 16.059 0s-4.888.019-6.595.094c-1.7.075-2.869.35-3.882.744a7.803 7.803 0 00-2.838 1.85A7.867 7.867 0 00.9 5.52C.506 6.539.231 7.702.156 9.402c-.081 1.713-.1 2.257-.1 6.601s.019 4.888.094 6.595c.075 1.7.35 2.869.744 3.882a7.895 7.895 0 001.85 2.838 7.867 7.867 0 002.832 1.844c1.019.394 2.182.669 3.882.744 1.706.075 2.25.094 6.595.094s4.888-.019 6.595-.094c1.7-.075 2.869-.35 3.882-.744a8.184 8.184 0 004.682-4.682c.394-1.019.669-2.182.744-3.882.075-1.707.094-2.251.094-6.595s-.006-4.888-.081-6.595zm-2.882 13.065c-.069 1.563-.331 2.407-.55 2.969a5.31 5.31 0 01-3.038 3.038c-.563.219-1.413.481-2.969.55-1.688.075-2.194.094-6.464.094s-4.782-.019-6.464-.094c-1.563-.069-2.407-.331-2.969-.55a4.926 4.926 0 01-1.838-1.194 4.974 4.974 0 01-1.194-1.838c-.219-.563-.481-1.413-.55-2.969-.075-1.688-.094-2.194-.094-6.464s.019-4.782.094-6.464c.069-1.563.331-2.407.55-2.969a4.868 4.868 0 011.2-1.838A4.974 4.974 0 016.639 3.55c.563-.219 1.413-.481 2.969-.55 1.688-.075 2.194-.094 6.464-.094 4.276 0 4.782.019 6.464.094 1.563.069 2.407.331 2.969.55a4.914 4.914 0 011.838 1.194 4.974 4.974 0 011.194 1.838c.219.563.481 1.413.55 2.969.075 1.688.094 2.194.094 6.464s-.019 4.77-.094 6.458z"/>
<path fill="" d="M16.059 7.783c-4.538 0-8.22 3.682-8.22 8.22s3.682 8.22 8.22 8.22c4.539 0 8.22-3.682 8.22-8.22s-3.682-8.22-8.22-8.22zm0 13.552a5.333 5.333 0 010-10.664 5.333 5.333 0 010 10.664zM26.524 7.458a1.919 1.919 0 11-3.838 0 1.919 1.919 0 013.838 0z"/>
</symbol>
<symbol id="social-linkedin" viewBox="0 0 32 32">
<path fill="" d="M31.992 32v-.001H32V20.263c0-5.741-1.236-10.164-7.948-10.164-3.227 0-5.392 1.771-6.276 3.449h-.093v-2.913h-6.364v21.364h6.627V21.42c0-2.785.528-5.479 3.977-5.479 3.399 0 3.449 3.179 3.449 5.657v10.401h6.62zM.528 10.636h6.635V32H.528V10.636zM3.843 0C1.722 0 0 1.721 0 3.843s1.721 3.879 3.843 3.879c2.121 0 3.843-1.757 3.843-3.879A3.846 3.846 0 003.843 0z"/>
</symbol>
<symbol id="social-twitter" viewBox="0 0 32 32">
<path fill="" d="M32 6.078c-1.19.522-2.458.868-3.78 1.036a6.523 6.523 0 002.886-3.626 13.11 13.11 0 01-4.16 1.588A6.574 6.574 0 0022.154 3c-3.632 0-6.556 2.948-6.556 6.562 0 .52.044 1.02.152 1.496-5.454-.266-10.28-2.88-13.522-6.862a6.605 6.605 0 00-.898 3.316 6.57 6.57 0 002.914 5.452 6.479 6.479 0 01-2.964-.808v.072c0 3.188 2.274 5.836 5.256 6.446a6.548 6.548 0 01-1.72.216 5.8 5.8 0 01-1.242-.112c.85 2.598 3.262 4.508 6.13 4.57a13.182 13.182 0 01-8.134 2.798c-.538 0-1.054-.024-1.57-.09A18.469 18.469 0 0010.064 29c12.072 0 18.672-10 18.672-18.668 0-.29-.01-.57-.024-.848A13.087 13.087 0 0032 6.078z"/>
</symbol>
<symbol id="icon-send" viewBox="0 0 24 24">
<path fill="" d="M24 0L0 13.5L7.66994 16.3407L19.5 5.25002L10.5017 17.3896L10.509 17.3923L10.5 17.3896V24.0001L14.8013 18.982L20.2501 21.0001L24 0Z" />
</symbol>
<symbol id="icon-close" viewBox="0 0 11 11">
<path fill="" d="M11 1.10786L9.89214 0L5.5 4.39214L1.10786 0L0 1.10786L4.39214 5.5L0 9.89214L1.10786 11L5.5 6.60786L9.89214 11L11 9.89214L6.60786 5.5L11 1.10786Z" />
</symbol>
<symbol id="modal-person" viewBox="0 0 18 18">
<path fill="" d="M9 9C10.6575 9 12 7.6575 12 6C12 4.3425 10.6575 3 9 3C7.3425 3 6 4.3425 6 6C6 7.6575 7.3425 9 9 9ZM9 10.5C6.9975 10.5 3 11.505 3 13.5V14.25C3 14.6625 3.3375 15 3.75 15H14.25C14.6625 15 15 14.6625 15 14.25V13.5C15 11.505 11.0025 10.5 9 10.5Z" />
</symbol>
<symbol id="modal-phone" viewBox="0 0 18 18">
<path fill="" d="M13.996 11.1226L12.1579 10.9127C11.7164 10.8621 11.2822 11.0141 10.9711 11.3252L9.63948 12.6568C7.59147 11.6147 5.91254 9.94301 4.87044 7.88775L6.20925 6.54894C6.52043 6.23775 6.6724 5.80355 6.62174 5.3621L6.41188 3.53842C6.32504 2.8075 5.70991 2.2575 4.97176 2.2575H3.71979C2.90203 2.2575 2.22178 2.93776 2.27243 3.75552C2.65598 9.93577 7.59871 14.8713 13.7717 15.2548C14.5894 15.3055 15.2697 14.6252 15.2697 13.8075V12.5555C15.2769 11.8246 14.7269 11.2095 13.996 11.1226Z" />
</symbol>
<symbol id="modal-email" viewBox="0 0 18 18">
<path fill="" d="M15 3H3C2.175 3 1.5075 3.675 1.5075 4.5L1.5 13.5C1.5 14.325 2.175 15 3 15H15C15.825 15 16.5 14.325 16.5 13.5V4.5C16.5 3.675 15.825 3 15 3ZM14.7 6.1875L9.3975 9.5025C9.1575 9.6525 8.8425 9.6525 8.6025 9.5025L3.3 6.1875C3.1125 6.0675 3 5.865 3 5.6475C3 5.145 3.5475 4.845 3.975 5.1075L9 8.25L14.025 5.1075C14.4525 4.845 15 5.145 15 5.6475C15 5.865 14.8875 6.0675 14.7 6.1875Z" />
</symbol>
<symbol id="modal-checked" viewBox="0 0 15 15">
<path fill="" d="M2.95703 7.75166L2.88825 7.68604L2.81923 7.75141L1.93123 8.59258L1.85486 8.66492L1.93097 8.73753L5.42671 12.0724L5.49574 12.1382L5.56476 12.0724L13.069 4.91352L13.1449 4.84116L13.069 4.76881L12.1873 3.92764L12.1183 3.86183L12.0493 3.92761L5.49577 10.1735L2.95703 7.75166Z" stroke="white" stroke-width="0.2" />
</symbol>
</defs>
</svg>